<svg width="300" height="400" viewBox="0 0 300 400" fill="none" xmlns="http://www.w3.org/2000/svg">
  <!-- Phone body -->
  <rect x="50" y="20" width="200" height="360" rx="25" fill="#E35336" stroke="#A0522D" stroke-width="3"/>
  
  <!-- Screen -->
  <rect x="70" y="60" width="160" height="280" rx="10" fill="#F5F5DC"/>
  
  <!-- Screen content -->
  <rect x="80" y="80" width="140" height="20" rx="5" fill="#F4A460"/>
  <rect x="80" y="110" width="100" height="15" rx="3" fill="#A0522D"/>
  <rect x="80" y="135" width="120" height="15" rx="3" fill="#A0522D"/>
  
  <!-- Recharge symbol -->
  <circle cx="150" cy="200" r="30" fill="#E35336"/>
  <path d="M140 190L160 190L150 210L170 210L150 230L130 210L150 210L140 190Z" fill="#F5F5DC"/>
  
  <!-- Signal bars -->
  <rect x="190" y="75" width="8" height="15" fill="#4ade80"/>
  <rect x="200" y="70" width="8" height="20" fill="#4ade80"/>
  <rect x="210" y="65" width="8" height="25" fill="#4ade80"/>
  
  <!-- Home button -->
  <circle cx="150" cy="360" r="15" fill="#A0522D"/>
</svg>